<svg width="534" height="365" viewBox="0 0 534 365" fill="none" xmlns="http://www.w3.org/2000/svg">
<path opacity="0.5" d="M266.8 364.8C362.235 364.8 439.6 287.435 439.6 192C439.6 96.5652 362.235 19.2 266.8 19.2C171.365 19.2 94 96.5652 94 192C94 287.435 171.365 364.8 266.8 364.8Z" fill="#AFD5F5"/>
<path opacity="0.29" d="M266.8 326.4C341.027 326.4 401.2 266.227 401.2 192C401.2 117.773 341.027 57.6 266.8 57.6C192.573 57.6 132.4 117.773 132.4 192C132.4 266.227 192.573 326.4 266.8 326.4Z" fill="#9ACBF4"/>
<path d="M355.12 134.4H178.48C174.238 134.4 170.8 137.838 170.8 142.08V251.52C170.8 255.762 174.238 259.2 178.48 259.2H355.12C359.361 259.2 362.8 255.762 362.8 251.52V142.08C362.8 137.838 359.361 134.4 355.12 134.4Z" fill="#14213D"/>
<path d="M349.36 144H184.24C182.119 144 180.4 145.719 180.4 147.84V236.16C180.4 238.281 182.119 240 184.24 240H349.36C351.481 240 353.2 238.281 353.2 236.16V147.84C353.2 145.719 351.481 144 349.36 144Z" fill="#68B2F1"/>
<path opacity="0.95" d="M337.84 153.6H195.76C192.579 153.6 190 156.179 190 159.36V224.64C190 227.821 192.579 230.4 195.76 230.4H337.84C341.021 230.4 343.6 227.821 343.6 224.64V159.36C343.6 156.179 341.021 153.6 337.84 153.6Z" fill="white"/>
<path d="M273.52 163.2H202.48C200.889 163.2 199.6 164.489 199.6 166.08C199.6 167.671 200.889 168.96 202.48 168.96H273.52C275.111 168.96 276.4 167.671 276.4 166.08C276.4 164.489 275.111 163.2 273.52 163.2Z" fill="#68B2F1"/>
<path d="M312.88 177.6H201.52C200.46 177.6 199.6 178.46 199.6 179.52C199.6 180.58 200.46 181.44 201.52 181.44H312.88C313.94 181.44 314.8 180.58 314.8 179.52C314.8 178.46 313.94 177.6 312.88 177.6Z" fill="#CBD5E1"/>
<path d="M293.68 187.2H201.52C200.46 187.2 199.6 188.06 199.6 189.12C199.6 190.18 200.46 191.04 201.52 191.04H293.68C294.74 191.04 295.6 190.18 295.6 189.12C295.6 188.06 294.74 187.2 293.68 187.2Z" fill="#CBD5E1"/>
<path opacity="0.2" d="M230.32 206.4H207.28C203.038 206.4 199.6 209.838 199.6 214.08C199.6 218.322 203.038 221.76 207.28 221.76H230.32C234.562 221.76 238 218.322 238 214.08C238 209.838 234.562 206.4 230.32 206.4Z" fill="#10B981"/>
<path d="M208.767 216.28V210.695H212.53V211.668H209.948V212.999H212.337V213.973H209.948V215.306H212.541V216.28H208.767ZM214.432 216.28H213.166L215.095 210.695H216.616L218.542 216.28H217.276L215.877 211.971H215.834L214.432 216.28ZM214.353 214.085H217.342V215.006H214.353V214.085ZM222.117 212.301C222.095 212.081 222.001 211.91 221.836 211.788C221.67 211.666 221.446 211.605 221.162 211.605C220.969 211.605 220.807 211.633 220.674 211.687C220.541 211.74 220.439 211.814 220.369 211.908C220.299 212.003 220.265 212.11 220.265 212.23C220.261 212.33 220.282 212.417 220.328 212.492C220.375 212.566 220.439 212.631 220.521 212.685C220.603 212.738 220.698 212.785 220.805 212.825C220.912 212.863 221.027 212.895 221.149 212.923L221.65 213.043C221.894 213.097 222.118 213.17 222.321 213.261C222.525 213.352 222.701 213.464 222.85 213.596C222.999 213.729 223.115 213.885 223.197 214.065C223.28 214.245 223.323 214.452 223.325 214.685C223.323 215.026 223.236 215.323 223.063 215.574C222.892 215.823 222.645 216.016 222.321 216.155C221.999 216.291 221.611 216.359 221.157 216.359C220.706 216.359 220.313 216.29 219.979 216.152C219.646 216.014 219.386 215.809 219.199 215.538C219.013 215.265 218.916 214.928 218.907 214.526H220.049C220.062 214.714 220.116 214.87 220.21 214.995C220.307 215.119 220.435 215.213 220.595 215.276C220.757 215.338 220.939 215.369 221.143 215.369C221.343 215.369 221.517 215.34 221.664 215.282C221.813 215.224 221.929 215.143 222.01 215.039C222.092 214.935 222.133 214.816 222.133 214.682C222.133 214.556 222.096 214.451 222.021 214.365C221.949 214.28 221.841 214.207 221.699 214.147C221.559 214.087 221.388 214.033 221.184 213.984L220.576 213.831C220.105 213.716 219.733 213.537 219.46 213.294C219.188 213.05 219.052 212.722 219.054 212.309C219.052 211.971 219.142 211.675 219.324 211.423C219.508 211.17 219.759 210.973 220.079 210.831C220.399 210.689 220.763 210.618 221.17 210.618C221.585 210.618 221.947 210.689 222.256 210.831C222.567 210.973 222.809 211.17 222.981 211.423C223.154 211.675 223.243 211.968 223.249 212.301H222.117ZM223.792 210.695H225.115L226.388 213.1H226.443L227.716 210.695H229.039L227.002 214.305V216.28H225.829V214.305L223.792 210.695Z" fill="#10B981"/>
<path opacity="0.1" d="M267.92 206H249.68C245.438 206 242 209.438 242 213.68C242 217.922 245.438 221.36 249.68 221.36H267.92C272.162 221.36 275.6 217.922 275.6 213.68C275.6 209.438 272.162 206 267.92 206Z" fill="#68B2F1"/>
<path d="M249.714 215.84V210.953H251.642C252.011 210.953 252.326 211.019 252.587 211.151C252.85 211.281 253.049 211.467 253.186 211.707C253.325 211.945 253.394 212.226 253.394 212.549C253.394 212.874 253.324 213.153 253.184 213.387C253.044 213.619 252.841 213.797 252.575 213.921C252.311 214.045 251.991 214.107 251.616 214.107H250.325V213.277H251.449C251.646 213.277 251.81 213.25 251.941 213.196C252.071 213.142 252.168 213.061 252.232 212.952C252.297 212.844 252.33 212.71 252.33 212.549C252.33 212.387 252.297 212.25 252.232 212.139C252.168 212.027 252.07 211.943 251.938 211.886C251.808 211.827 251.643 211.797 251.444 211.797H250.747V215.84H249.714ZM252.353 213.616L253.568 215.84H252.427L251.239 213.616H252.353ZM255.716 215.912C255.339 215.912 255.015 215.835 254.743 215.682C254.472 215.528 254.264 215.31 254.118 215.029C253.971 214.745 253.898 214.411 253.898 214.024C253.898 213.647 253.971 213.316 254.118 213.031C254.264 212.746 254.47 212.525 254.736 212.365C255.003 212.206 255.316 212.127 255.676 212.127C255.918 212.127 256.143 212.166 256.351 212.244C256.561 212.32 256.744 212.435 256.9 212.59C257.058 212.744 257.18 212.938 257.268 213.172C257.355 213.404 257.399 213.676 257.399 213.988V214.267H254.304V213.637H256.442C256.442 213.491 256.41 213.361 256.346 213.248C256.283 213.135 256.194 213.047 256.082 212.984C255.97 212.918 255.84 212.886 255.693 212.886C255.538 212.886 255.401 212.921 255.282 212.993C255.164 213.063 255.072 213.158 255.005 213.277C254.938 213.395 254.904 213.526 254.903 213.671V214.27C254.903 214.451 254.936 214.608 255.003 214.74C255.071 214.872 255.168 214.974 255.292 215.045C255.416 215.117 255.563 215.153 255.733 215.153C255.846 215.153 255.949 215.137 256.043 215.105C256.137 215.073 256.218 215.025 256.284 214.962C256.351 214.898 256.402 214.82 256.437 214.728L257.377 214.79C257.33 215.016 257.232 215.213 257.084 215.382C256.937 215.549 256.748 215.679 256.516 215.773C256.285 215.865 256.019 215.912 255.716 215.912ZM259.107 215.909C258.874 215.909 258.665 215.869 258.482 215.787C258.299 215.705 258.154 215.583 258.048 215.422C257.943 215.26 257.89 215.058 257.89 214.816C257.89 214.613 257.928 214.442 258.003 214.303C258.077 214.165 258.179 214.053 258.308 213.969C258.437 213.885 258.583 213.821 258.747 213.778C258.913 213.735 259.086 213.705 259.267 213.687C259.48 213.665 259.652 213.645 259.783 213.625C259.913 213.605 260.008 213.575 260.067 213.535C260.126 213.495 260.155 213.436 260.155 213.358V213.344C260.155 213.193 260.107 213.076 260.012 212.993C259.918 212.91 259.784 212.869 259.611 212.869C259.428 212.869 259.282 212.91 259.174 212.991C259.066 213.07 258.994 213.17 258.959 213.291L258.019 213.215C258.067 212.992 258.161 212.8 258.301 212.637C258.441 212.474 258.621 212.348 258.843 212.26C259.065 212.171 259.323 212.127 259.616 212.127C259.819 212.127 260.014 212.151 260.2 212.198C260.388 212.246 260.554 212.32 260.699 212.42C260.845 212.521 260.961 212.649 261.045 212.807C261.129 212.963 261.172 213.15 261.172 213.368V215.84H260.208V215.332H260.179C260.12 215.446 260.041 215.547 259.943 215.635C259.844 215.721 259.725 215.788 259.587 215.838C259.449 215.885 259.289 215.909 259.107 215.909ZM259.399 215.208C259.548 215.208 259.68 215.178 259.795 215.119C259.909 215.059 259.999 214.978 260.064 214.876C260.13 214.774 260.162 214.659 260.162 214.53V214.141C260.13 214.162 260.087 214.181 260.031 214.198C259.977 214.214 259.916 214.229 259.847 214.244C259.779 214.256 259.71 214.268 259.642 214.279C259.574 214.289 259.512 214.298 259.456 214.306C259.337 214.323 259.232 214.351 259.143 214.389C259.054 214.427 258.985 214.479 258.936 214.544C258.886 214.608 258.862 214.687 258.862 214.783C258.862 214.921 258.912 215.027 259.012 215.1C259.114 215.172 259.243 215.208 259.399 215.208ZM263.616 215.912C263.241 215.912 262.918 215.832 262.648 215.673C262.379 215.512 262.172 215.29 262.027 215.005C261.884 214.72 261.812 214.392 261.812 214.022C261.812 213.646 261.885 213.317 262.03 213.034C262.176 212.749 262.384 212.527 262.652 212.368C262.921 212.207 263.241 212.127 263.612 212.127C263.931 212.127 264.211 212.185 264.452 212.301C264.692 212.417 264.882 212.58 265.022 212.79C265.162 213 265.239 213.247 265.254 213.53H264.294C264.267 213.347 264.196 213.2 264.079 213.089C263.965 212.976 263.815 212.919 263.628 212.919C263.471 212.919 263.333 212.962 263.216 213.048C263.099 213.132 263.009 213.256 262.944 213.418C262.878 213.58 262.846 213.777 262.846 214.007C262.846 214.241 262.877 214.44 262.941 214.604C263.006 214.768 263.098 214.893 263.216 214.979C263.333 215.064 263.471 215.107 263.628 215.107C263.745 215.107 263.849 215.084 263.941 215.036C264.035 214.988 264.112 214.919 264.172 214.828C264.235 214.736 264.275 214.625 264.294 214.496H265.254C265.238 214.776 265.161 215.023 265.024 215.236C264.889 215.448 264.702 215.613 264.464 215.733C264.225 215.852 263.943 215.912 263.616 215.912ZM267.854 212.175V212.938H265.647V212.175H267.854ZM266.148 211.296H267.164V214.714C267.164 214.807 267.179 214.881 267.207 214.933C267.236 214.984 267.276 215.02 267.327 215.041C267.379 215.061 267.44 215.072 267.508 215.072C267.556 215.072 267.603 215.068 267.651 215.06C267.699 215.05 267.736 215.043 267.761 215.038L267.921 215.795C267.87 215.811 267.798 215.829 267.706 215.85C267.614 215.872 267.502 215.885 267.37 215.89C267.125 215.9 266.91 215.867 266.725 215.792C266.542 215.717 266.4 215.601 266.298 215.444C266.196 215.286 266.146 215.087 266.148 214.847V211.296Z" fill="#68B2F1"/>
<path opacity="0.1" d="M301.12 206H287.68C283.438 206 280 209.438 280 213.68C280 217.922 283.438 221.36 287.68 221.36H301.12C305.362 221.36 308.8 217.922 308.8 213.68C308.8 209.438 305.362 206 301.12 206Z" fill="#68B2F1"/>
<path d="M292.844 210.953H293.865V214.36C293.865 214.675 293.794 214.949 293.653 215.181C293.513 215.414 293.318 215.593 293.068 215.718C292.818 215.844 292.528 215.907 292.197 215.907C291.903 215.907 291.635 215.855 291.395 215.752C291.157 215.647 290.967 215.488 290.827 215.274C290.687 215.06 290.618 214.79 290.62 214.465H291.648C291.651 214.594 291.678 214.705 291.727 214.797C291.778 214.888 291.847 214.958 291.934 215.007C292.024 215.055 292.129 215.079 292.249 215.079C292.377 215.079 292.484 215.052 292.572 214.998C292.661 214.942 292.728 214.861 292.774 214.754C292.821 214.648 292.844 214.516 292.844 214.36V210.953ZM297.371 212.358C297.352 212.166 297.27 212.016 297.125 211.91C296.98 211.803 296.784 211.75 296.535 211.75C296.367 211.75 296.224 211.774 296.108 211.821C295.992 211.867 295.903 211.932 295.841 212.015C295.781 212.097 295.75 212.191 295.75 212.296C295.747 212.384 295.765 212.46 295.805 212.525C295.847 212.591 295.903 212.647 295.975 212.695C296.046 212.741 296.129 212.781 296.223 212.816C296.317 212.85 296.417 212.879 296.523 212.902L296.963 213.007C297.176 213.055 297.371 213.119 297.55 213.198C297.728 213.278 297.882 213.376 298.013 213.492C298.143 213.608 298.244 213.745 298.316 213.902C298.389 214.06 298.426 214.24 298.428 214.444C298.426 214.743 298.35 215.002 298.199 215.222C298.049 215.44 297.833 215.609 297.55 215.73C297.268 215.85 296.928 215.909 296.531 215.909C296.136 215.909 295.792 215.849 295.5 215.728C295.209 215.607 294.981 215.428 294.817 215.191C294.655 214.952 294.57 214.657 294.562 214.306H295.562C295.573 214.469 295.62 214.606 295.703 214.716C295.787 214.824 295.899 214.906 296.039 214.962C296.181 215.016 296.341 215.043 296.519 215.043C296.694 215.043 296.846 215.017 296.974 214.967C297.105 214.916 297.206 214.845 297.278 214.754C297.349 214.664 297.385 214.559 297.385 214.442C297.385 214.332 297.352 214.24 297.287 214.165C297.223 214.09 297.13 214.026 297.006 213.974C296.883 213.921 296.733 213.874 296.554 213.831L296.022 213.697C295.61 213.597 295.285 213.44 295.046 213.227C294.808 213.014 294.689 212.727 294.691 212.365C294.689 212.07 294.768 211.811 294.927 211.59C295.088 211.369 295.308 211.196 295.588 211.072C295.868 210.948 296.186 210.886 296.543 210.886C296.905 210.886 297.222 210.948 297.492 211.072C297.764 211.196 297.976 211.369 298.127 211.59C298.278 211.811 298.356 212.067 298.361 212.358H297.371Z" fill="#68B2F1"/>
<path d="M161.2 259.2H372.4L382 273.6H151.6L161.2 259.2Z" fill="#334155"/>
<path d="M293.68 273.6H239.92C238.86 273.6 238 274.46 238 275.52C238 276.58 238.86 277.44 239.92 277.44H293.68C294.74 277.44 295.6 276.58 295.6 275.52C295.6 274.46 294.74 273.6 293.68 273.6Z" fill="#14213D"/>
<g opacity="0.9">
<path d="M460.72 96H380.08C375.838 96 372.4 99.4385 372.4 103.68V155.52C372.4 159.762 375.838 163.2 380.08 163.2H460.72C464.962 163.2 468.4 159.762 468.4 155.52V103.68C468.4 99.4385 464.962 96 460.72 96Z" fill="white"/>
<path opacity="0.6" d="M435.76 105.6H385.84C383.719 105.6 382 107.319 382 109.44C382 111.561 383.719 113.28 385.84 113.28H435.76C437.881 113.28 439.6 111.561 439.6 109.44C439.6 107.319 437.881 105.6 435.76 105.6Z" fill="#68B2F1"/>
<path d="M456.88 120H383.92C382.86 120 382 120.86 382 121.92C382 122.98 382.86 123.84 383.92 123.84H456.88C457.94 123.84 458.8 122.98 458.8 121.92C458.8 120.86 457.94 120 456.88 120Z" fill="#E2E8F0"/>
<path d="M447.28 129.6H383.92C382.86 129.6 382 130.46 382 131.52C382 132.58 382.86 133.44 383.92 133.44H447.28C448.34 133.44 449.2 132.58 449.2 131.52C449.2 130.46 448.34 129.6 447.28 129.6Z" fill="#E2E8F0"/>
<path opacity="0.2" d="M391.6 156.48C395.842 156.48 399.28 153.042 399.28 148.8C399.28 144.558 395.842 141.12 391.6 141.12C387.358 141.12 383.92 144.558 383.92 148.8C383.92 153.042 387.358 156.48 391.6 156.48Z" fill="#10B981"/>
<path d="M388.588 147.93L389.106 147.398L390.906 149.171L394.629 145.462L395.161 145.994L390.906 150.235L388.588 147.93Z" fill="#10B981"/>
<path d="M134.32 172.8H63.28C59.0384 172.8 55.6 176.238 55.6 180.48V227.52C55.6 231.762 59.0384 235.2 63.28 235.2H134.32C138.562 235.2 142 231.762 142 227.52V180.48C142 176.238 138.562 172.8 134.32 172.8Z" fill="white"/>
<path opacity="0.9" d="M110.32 182.4H68.08C66.4894 182.4 65.2 183.689 65.2 185.28V186.24C65.2 187.831 66.4894 189.12 68.08 189.12H110.32C111.911 189.12 113.2 187.831 113.2 186.24V185.28C113.2 183.689 111.911 182.4 110.32 182.4Z" fill="#F59E0B"/>
<path d="M130.48 195.84H67.12C66.0596 195.84 65.2 196.7 65.2 197.76C65.2 198.82 66.0596 199.68 67.12 199.68H130.48C131.54 199.68 132.4 198.82 132.4 197.76C132.4 196.7 131.54 195.84 130.48 195.84Z" fill="#E2E8F0"/>
<path d="M120.88 204.48H67.12C66.0596 204.48 65.2 205.34 65.2 206.4C65.2 207.46 66.0596 208.32 67.12 208.32H120.88C121.94 208.32 122.8 207.46 122.8 206.4C122.8 205.34 121.94 204.48 120.88 204.48Z" fill="#E2E8F0"/>
<path opacity="0.2" d="M93.8 219H72.2C68.2235 219 65 221.462 65 224.5C65 227.538 68.2235 230 72.2 230H93.8C97.7765 230 101 227.538 101 224.5C101 221.462 97.7765 219 93.8 219Z" fill="#F59E0B"/>
<path d="M69.881 222.113H71.1553L72.5013 225.396H72.5585L73.9044 222.113H75.1788V227H74.1765V223.819H74.1359L72.8711 226.976H72.1886L70.9239 223.807H70.8833V227H69.881V222.113ZM76.0301 227V222.113H79.3233V222.965H77.0634V224.129H79.1538V224.981H77.0634V226.148H79.3328V227H76.0301ZM81.8773 227H80.1448V222.113H81.8916C82.3832 222.113 82.8064 222.211 83.1611 222.406C83.5159 222.6 83.7888 222.88 83.9797 223.244C84.1722 223.608 84.2684 224.044 84.2684 224.552C84.2684 225.061 84.1722 225.498 83.9797 225.864C83.7888 226.23 83.5143 226.511 83.1564 226.706C82.8 226.902 82.3736 227 81.8773 227ZM81.1781 226.115H81.8343C82.1398 226.115 82.3967 226.061 82.6051 225.952C82.8151 225.843 82.9726 225.673 83.0776 225.444C83.1842 225.213 83.2375 224.916 83.2375 224.552C83.2375 224.19 83.1842 223.895 83.0776 223.666C82.9726 223.437 82.8159 223.269 82.6075 223.16C82.3991 223.052 82.1422 222.998 81.8367 222.998H81.1781V226.115ZM86.0671 222.113V227H85.0338V222.113H86.0671ZM89.936 222.113H90.9693V225.287C90.9693 225.643 90.8842 225.955 90.714 226.222C90.5453 226.489 90.3091 226.698 90.0052 226.847C89.7014 226.995 89.3474 227.069 88.9433 227.069C88.5376 227.069 88.1828 226.995 87.879 226.847C87.5751 226.698 87.3389 226.489 87.1702 226.222C87.0016 225.955 86.9173 225.643 86.9173 225.287V222.113H87.9506V225.198C87.9506 225.384 87.9911 225.55 88.0723 225.695C88.155 225.839 88.2711 225.953 88.4207 226.036C88.5702 226.119 88.7444 226.16 88.9433 226.16C89.1438 226.16 89.318 226.119 89.4659 226.036C89.6155 225.953 89.7308 225.839 89.8119 225.695C89.8947 225.55 89.936 225.384 89.936 225.198V222.113ZM91.8195 222.113H93.0938L94.4397 225.396H94.497L95.8429 222.113H97.1172V227H96.1149V223.819H96.0743L94.8096 226.976H94.1271L92.8623 223.807H92.8217V227H91.8195V222.113Z" fill="#F59E0B"/>
</g>
<path d="M479.92 211.2H389.68C385.438 211.2 382 214.638 382 218.88V289.92C382 294.162 385.438 297.6 389.68 297.6H479.92C484.162 297.6 487.6 294.162 487.6 289.92V218.88C487.6 214.638 484.162 211.2 479.92 211.2Z" fill="white"/>
<path d="M414.754 227.88V220.898H417.509C418.038 220.898 418.489 220.999 418.862 221.202C419.235 221.402 419.519 221.68 419.714 222.037C419.912 222.391 420.011 222.8 420.011 223.264C420.011 223.728 419.911 224.137 419.711 224.491C419.511 224.846 419.221 225.122 418.842 225.32C418.464 225.518 418.007 225.616 417.471 225.616H415.715V224.433H417.232C417.517 224.433 417.751 224.385 417.935 224.287C418.121 224.187 418.26 224.049 418.351 223.874C418.444 223.697 418.49 223.494 418.49 223.264C418.49 223.032 418.444 222.83 418.351 222.657C418.26 222.482 418.121 222.347 417.935 222.252C417.748 222.154 417.512 222.105 417.226 222.105H416.23V227.88H414.754ZM420.942 227.88V222.644H422.35V223.557H422.405C422.5 223.232 422.661 222.987 422.886 222.821C423.111 222.653 423.37 222.569 423.663 222.569C423.736 222.569 423.814 222.573 423.898 222.582C423.982 222.591 424.056 222.604 424.12 222.62V223.908C424.052 223.888 423.957 223.87 423.837 223.854C423.716 223.838 423.606 223.83 423.506 223.83C423.292 223.83 423.102 223.877 422.933 223.97C422.767 224.061 422.636 224.188 422.538 224.352C422.442 224.515 422.395 224.704 422.395 224.918V227.88H420.942ZM426.993 227.982C426.463 227.982 426.005 227.87 425.619 227.645C425.235 227.418 424.938 227.102 424.729 226.697C424.52 226.29 424.415 225.819 424.415 225.282C424.415 224.741 424.52 224.269 424.729 223.864C424.938 223.457 425.235 223.141 425.619 222.916C426.005 222.689 426.463 222.575 426.993 222.575C427.522 222.575 427.979 222.689 428.363 222.916C428.75 223.141 429.047 223.457 429.256 223.864C429.465 224.269 429.57 224.741 429.57 225.282C429.57 225.819 429.465 226.29 429.256 226.697C429.047 227.102 428.75 227.418 428.363 227.645C427.979 227.87 427.522 227.982 426.993 227.982ZM427 226.857C427.24 226.857 427.442 226.789 427.603 226.653C427.764 226.514 427.886 226.325 427.968 226.087C428.052 225.848 428.094 225.577 428.094 225.272C428.094 224.968 428.052 224.696 427.968 224.457C427.886 224.219 427.764 224.03 427.603 223.891C427.442 223.753 427.24 223.683 427 223.683C426.756 223.683 426.552 223.753 426.386 223.891C426.222 224.03 426.098 224.219 426.014 224.457C425.932 224.696 425.892 224.968 425.892 225.272C425.892 225.577 425.932 225.848 426.014 226.087C426.098 226.325 426.222 226.514 426.386 226.653C426.552 226.789 426.756 226.857 427 226.857ZM432.873 229.953C432.403 229.953 432 229.888 431.663 229.758C431.329 229.631 431.063 229.457 430.865 229.237C430.668 229.016 430.539 228.769 430.48 228.494L431.823 228.313C431.864 228.418 431.929 228.515 432.018 228.606C432.106 228.697 432.223 228.77 432.369 228.824C432.517 228.881 432.696 228.91 432.907 228.91C433.223 228.91 433.484 228.832 433.688 228.678C433.895 228.525 433.998 228.27 433.998 227.911V226.953H433.937C433.873 227.098 433.778 227.236 433.651 227.365C433.523 227.495 433.36 227.6 433.16 227.682C432.96 227.764 432.721 227.805 432.444 227.805C432.051 227.805 431.693 227.714 431.37 227.532C431.05 227.348 430.794 227.068 430.603 226.69C430.414 226.311 430.32 225.831 430.32 225.252C430.32 224.658 430.417 224.163 430.61 223.765C430.803 223.368 431.06 223.07 431.38 222.872C431.703 222.674 432.056 222.575 432.44 222.575C432.734 222.575 432.979 222.625 433.177 222.725C433.375 222.823 433.534 222.946 433.654 223.094C433.777 223.239 433.871 223.382 433.937 223.523H433.992V222.644H435.434V227.931C435.434 228.377 435.325 228.749 435.106 229.049C434.888 229.349 434.586 229.574 434.2 229.724C433.815 229.877 433.373 229.953 432.873 229.953ZM432.904 226.714C433.138 226.714 433.336 226.656 433.497 226.54C433.661 226.422 433.786 226.254 433.872 226.036C433.961 225.815 434.005 225.552 434.005 225.245C434.005 224.938 433.962 224.672 433.876 224.447C433.789 224.22 433.664 224.044 433.501 223.919C433.337 223.794 433.138 223.731 432.904 223.731C432.665 223.731 432.464 223.796 432.301 223.925C432.137 224.053 432.013 224.23 431.929 224.457C431.845 224.685 431.803 224.947 431.803 225.245C431.803 225.547 431.845 225.808 431.929 226.029C432.015 226.247 432.139 226.416 432.301 226.537C432.464 226.655 432.665 226.714 432.904 226.714ZM436.589 227.88V222.644H437.997V223.557H438.052C438.147 223.232 438.307 222.987 438.532 222.821C438.757 222.653 439.017 222.569 439.31 222.569C439.382 222.569 439.461 222.573 439.545 222.582C439.629 222.591 439.703 222.604 439.767 222.62V223.908C439.698 223.888 439.604 223.87 439.484 223.854C439.363 223.838 439.253 223.83 439.153 223.83C438.939 223.83 438.748 223.877 438.58 223.97C438.414 224.061 438.282 224.188 438.185 224.352C438.089 224.515 438.042 224.704 438.042 224.918V227.88H436.589ZM442.66 227.982C442.121 227.982 441.658 227.873 441.269 227.655C440.883 227.435 440.585 227.123 440.376 226.721C440.167 226.316 440.062 225.838 440.062 225.286C440.062 224.747 440.167 224.274 440.376 223.868C440.585 223.461 440.879 223.144 441.259 222.916C441.641 222.689 442.088 222.575 442.602 222.575C442.948 222.575 443.269 222.631 443.567 222.743C443.867 222.852 444.128 223.016 444.351 223.237C444.576 223.457 444.751 223.735 444.876 224.069C445.001 224.4 445.063 224.789 445.063 225.235V225.633H440.642V224.733H443.696C443.696 224.524 443.651 224.339 443.56 224.178C443.469 224.016 443.343 223.89 443.182 223.799C443.023 223.706 442.837 223.66 442.626 223.66C442.405 223.66 442.21 223.711 442.04 223.813C441.871 223.913 441.74 224.048 441.644 224.219C441.549 224.387 441.5 224.574 441.498 224.781V225.637C441.498 225.896 441.545 226.12 441.641 226.308C441.738 226.497 441.876 226.643 442.053 226.745C442.23 226.847 442.441 226.898 442.684 226.898C442.845 226.898 442.993 226.875 443.127 226.83C443.261 226.785 443.376 226.716 443.471 226.625C443.567 226.535 443.64 226.423 443.69 226.291L445.033 226.38C444.965 226.703 444.825 226.985 444.613 227.225C444.404 227.464 444.134 227.65 443.802 227.785C443.473 227.916 443.092 227.982 442.66 227.982ZM450.368 224.137L449.038 224.219C449.016 224.105 448.967 224.003 448.892 223.912C448.817 223.819 448.718 223.745 448.595 223.69C448.475 223.633 448.33 223.605 448.162 223.605C447.937 223.605 447.748 223.653 447.593 223.748C447.438 223.841 447.361 223.966 447.361 224.123C447.361 224.248 447.411 224.354 447.511 224.44C447.611 224.527 447.783 224.596 448.026 224.648L448.974 224.839C449.483 224.944 449.862 225.112 450.112 225.344C450.362 225.575 450.487 225.88 450.487 226.257C450.487 226.6 450.386 226.902 450.184 227.161C449.984 227.42 449.709 227.622 449.359 227.768C449.011 227.911 448.61 227.982 448.155 227.982C447.462 227.982 446.91 227.838 446.499 227.549C446.09 227.258 445.85 226.863 445.779 226.363L447.208 226.288C447.251 226.499 447.355 226.661 447.521 226.772C447.687 226.881 447.9 226.936 448.159 226.936C448.413 226.936 448.618 226.887 448.773 226.789C448.929 226.689 449.009 226.561 449.011 226.404C449.009 226.272 448.953 226.164 448.844 226.08C448.735 225.994 448.567 225.928 448.34 225.882L447.433 225.702C446.921 225.599 446.541 225.422 446.291 225.17C446.043 224.918 445.919 224.596 445.919 224.205C445.919 223.869 446.01 223.579 446.192 223.336C446.376 223.093 446.634 222.905 446.966 222.773C447.3 222.641 447.691 222.575 448.138 222.575C448.8 222.575 449.32 222.715 449.7 222.995C450.082 223.274 450.304 223.655 450.368 224.137ZM455.759 224.137L454.429 224.219C454.406 224.105 454.357 224.003 454.282 223.912C454.207 223.819 454.109 223.745 453.986 223.69C453.865 223.633 453.721 223.605 453.553 223.605C453.328 223.605 453.138 223.653 452.984 223.748C452.829 223.841 452.752 223.966 452.752 224.123C452.752 224.248 452.802 224.354 452.902 224.44C453.002 224.527 453.173 224.596 453.417 224.648L454.364 224.839C454.873 224.944 455.253 225.112 455.503 225.344C455.753 225.575 455.878 225.88 455.878 226.257C455.878 226.6 455.777 226.902 455.575 227.161C455.375 227.42 455.1 227.622 454.75 227.768C454.402 227.911 454.001 227.982 453.546 227.982C452.853 227.982 452.301 227.838 451.889 227.549C451.48 227.258 451.24 226.863 451.17 226.363L452.598 226.288C452.642 226.499 452.746 226.661 452.912 226.772C453.078 226.881 453.29 226.936 453.55 226.936C453.804 226.936 454.009 226.887 454.163 226.789C454.32 226.689 454.4 226.561 454.402 226.404C454.4 226.272 454.344 226.164 454.235 226.08C454.126 225.994 453.957 225.928 453.73 225.882L452.823 225.702C452.312 225.599 451.931 225.422 451.681 225.17C451.434 224.918 451.31 224.596 451.31 224.205C451.31 223.869 451.401 223.579 451.582 223.336C451.767 223.093 452.025 222.905 452.356 222.773C452.69 222.641 453.081 222.575 453.529 222.575C454.19 222.575 454.711 222.715 455.09 222.995C455.472 223.274 455.695 223.655 455.759 224.137Z" fill="#14213D"/>
<path opacity="0.3" d="M406 259H398C396.895 259 396 259.577 396 260.289V286.711C396 287.423 396.895 288 398 288H406C407.105 288 408 287.423 408 286.711V260.289C408 259.577 407.105 259 406 259Z" fill="#68B2F1"/>
<path d="M406 266H398C396.895 266 396 266.563 396 267.257V286.743C396 287.437 396.895 288 398 288H406C407.105 288 408 287.437 408 286.743V267.257C408 266.563 407.105 266 406 266Z" fill="#68B2F1"/>
<path opacity="0.3" d="M425.167 256H417.833C416.821 256 416 256.573 416 257.28V286.72C416 287.427 416.821 288 417.833 288H425.167C426.179 288 427 287.427 427 286.72V257.28C427 256.573 426.179 256 425.167 256Z" fill="#68B2F1"/>
<path d="M425.167 260H417.833C416.821 260 416 260.597 416 261.333V286.667C416 287.403 416.821 288 417.833 288H425.167C426.179 288 427 287.403 427 286.667V261.333C427 260.597 426.179 260 425.167 260Z" fill="#68B2F1"/>
<path opacity="0.3" d="M444.167 249H436.833C435.821 249 435 249.582 435 250.3V286.7C435 287.418 435.821 288 436.833 288H444.167C445.179 288 446 287.418 446 286.7V250.3C446 249.582 445.179 249 444.167 249Z" fill="#68B2F1"/>
<path d="M444.167 253H436.833C435.821 253 435 253.57 435 254.273V286.727C435 287.43 435.821 288 436.833 288H444.167C445.179 288 446 287.43 446 286.727V254.273C446 253.57 445.179 253 444.167 253Z" fill="#68B2F1"/>
<path opacity="0.3" d="M464 246H456C454.895 246 454 246.579 454 247.292V286.708C454 287.421 454.895 288 456 288H464C465.105 288 466 287.421 466 286.708V247.292C466 246.579 465.105 246 464 246Z" fill="#10B981"/>
<path d="M464 248H456C454.895 248 454 248.578 454 249.29V286.71C454 287.422 454.895 288 456 288H464C465.105 288 466 287.422 466 286.71V249.29C466 248.578 465.105 248 464 248Z" fill="#10B981"/>
<path d="M466 239L473 233L480 239" stroke="#10B981" stroke-width="1.92" stroke-linecap="round" stroke-linejoin="round"/>
<path d="M115.12 86.4H82.48C78.2385 86.4 74.8 89.8384 74.8 94.08V136.32C74.8 140.562 78.2385 144 82.48 144H115.12C119.362 144 122.8 140.562 122.8 136.32V94.08C122.8 89.8384 119.362 86.4 115.12 86.4Z" fill="white"/>
<path opacity="0.1" d="M111.28 96H86.32C85.2596 96 84.4 96.8596 84.4 97.92V127.68C84.4 128.74 85.2596 129.6 86.32 129.6H111.28C112.34 129.6 113.2 128.74 113.2 127.68V97.92C113.2 96.8596 112.34 96 111.28 96Z" fill="#68B2F1"/>
<path d="M89.2001 100.8V122.88L98.8001 117.12L108.4 122.88V100.8H89.2001Z" fill="#68B2F1"/>
<path d="M98.8 139.2C100.391 139.2 101.68 137.911 101.68 136.32C101.68 134.729 100.391 133.44 98.8 133.44C97.2095 133.44 95.92 134.729 95.92 136.32C95.92 137.911 97.2095 139.2 98.8 139.2Z" fill="#F59E0B"/>
<path opacity="0.45" d="M468.8 124.6C484.706 124.6 497.6 111.706 497.6 95.8C497.6 79.8942 484.706 67 468.8 67C452.894 67 440 79.8942 440 95.8C440 111.706 452.894 124.6 468.8 124.6Z" fill="#10B981"/>
<path d="M468.8 115C479.404 115 488 106.404 488 95.8C488 85.1961 479.404 76.6 468.8 76.6C458.196 76.6 449.6 85.1961 449.6 95.8C449.6 106.404 458.196 115 468.8 115Z" fill="#10B981"/>
<path d="M461.12 95.8L465.92 100.6L476.48 90.04" stroke="white" stroke-width="2.88" stroke-linecap="round" stroke-linejoin="round"/>
<g opacity="0.52">
<path d="M134.145 40.1455V39.9818C134.164 38.2455 134.345 36.8636 134.691 35.8364C135.036 34.8091 135.527 33.9773 136.164 33.3409C136.8 32.7045 137.564 32.1182 138.455 31.5818C138.991 31.2545 139.473 30.8682 139.9 30.4227C140.327 29.9682 140.664 29.4455 140.909 28.8545C141.164 28.2636 141.291 27.6091 141.291 26.8909C141.291 26 141.082 25.2273 140.664 24.5727C140.245 23.9182 139.686 23.4136 138.986 23.0591C138.286 22.7045 137.509 22.5273 136.655 22.5273C135.909 22.5273 135.191 22.6818 134.5 22.9909C133.809 23.3 133.232 23.7864 132.768 24.45C132.305 25.1136 132.036 25.9818 131.964 27.0545H128.527C128.6 25.5091 129 24.1864 129.727 23.0864C130.464 21.9864 131.432 21.1455 132.632 20.5636C133.841 19.9818 135.182 19.6909 136.655 19.6909C138.255 19.6909 139.645 20.0091 140.827 20.6455C142.018 21.2818 142.936 22.1545 143.582 23.2636C144.236 24.3727 144.564 25.6364 144.564 27.0545C144.564 28.0545 144.409 28.9591 144.1 29.7682C143.8 30.5773 143.364 31.3 142.791 31.9364C142.227 32.5727 141.545 33.1364 140.745 33.6273C139.945 34.1273 139.305 34.6545 138.823 35.2091C138.341 35.7545 137.991 36.4045 137.773 37.1591C137.555 37.9136 137.436 38.8545 137.418 39.9818V40.1455H134.145ZM135.891 48.2182C135.218 48.2182 134.641 47.9773 134.159 47.4955C133.677 47.0136 133.436 46.4364 133.436 45.7636C133.436 45.0909 133.677 44.5136 134.159 44.0318C134.641 43.55 135.218 43.3091 135.891 43.3091C136.564 43.3091 137.141 43.55 137.623 44.0318C138.105 44.5136 138.345 45.0909 138.345 45.7636C138.345 46.2091 138.232 46.6182 138.005 46.9909C137.786 47.3636 137.491 47.6636 137.118 47.8909C136.755 48.1091 136.345 48.2182 135.891 48.2182Z" fill="#14213D"/>
<path d="M417.052 328.527V328.384C417.068 326.865 417.227 325.656 417.53 324.757C417.832 323.858 418.261 323.13 418.818 322.573C419.375 322.017 420.043 321.503 420.823 321.034C421.292 320.748 421.714 320.41 422.088 320.02C422.461 319.622 422.756 319.165 422.971 318.648C423.193 318.131 423.305 317.558 423.305 316.93C423.305 316.15 423.122 315.474 422.756 314.901C422.39 314.328 421.901 313.887 421.288 313.577C420.676 313.267 419.996 313.111 419.248 313.111C418.596 313.111 417.967 313.247 417.363 313.517C416.758 313.788 416.253 314.213 415.847 314.794C415.442 315.374 415.207 316.134 415.143 317.073H412.136C412.2 315.72 412.55 314.563 413.186 313.601C413.831 312.638 414.678 311.902 415.728 311.393C416.786 310.884 417.959 310.63 419.248 310.63C420.648 310.63 421.865 310.908 422.899 311.465C423.941 312.022 424.744 312.785 425.309 313.756C425.882 314.726 426.168 315.832 426.168 317.073C426.168 317.948 426.033 318.739 425.763 319.447C425.5 320.155 425.118 320.788 424.617 321.344C424.124 321.901 423.527 322.394 422.827 322.824C422.127 323.261 421.567 323.723 421.145 324.208C420.723 324.685 420.417 325.254 420.226 325.914C420.035 326.574 419.932 327.398 419.916 328.384V328.527H417.052ZM418.58 335.591C417.991 335.591 417.486 335.38 417.064 334.959C416.643 334.537 416.432 334.032 416.432 333.443C416.432 332.855 416.643 332.349 417.064 331.928C417.486 331.506 417.991 331.295 418.58 331.295C419.168 331.295 419.673 331.506 420.095 331.928C420.517 332.349 420.727 332.855 420.727 333.443C420.727 333.833 420.628 334.191 420.429 334.517C420.238 334.843 419.98 335.106 419.653 335.305C419.335 335.495 418.977 335.591 418.58 335.591Z" fill="#14213D"/>
<path d="M113.2 311.04C115.321 311.04 117.04 309.321 117.04 307.2C117.04 305.079 115.321 303.36 113.2 303.36C111.079 303.36 109.36 305.079 109.36 307.2C109.36 309.321 111.079 311.04 113.2 311.04Z" fill="#14213D"/>
<path d="M439.6 175.68C441.191 175.68 442.48 174.391 442.48 172.8C442.48 171.209 441.191 169.92 439.6 169.92C438.009 169.92 436.72 171.209 436.72 172.8C436.72 174.391 438.009 175.68 439.6 175.68Z" fill="#069C6A"/>
<path d="M152.88 6.76C154.471 6.76 155.76 5.47058 155.76 3.88C155.76 2.28942 154.471 1 152.88 1C151.289 1 150 2.28942 150 3.88C150 5.47058 151.289 6.76 152.88 6.76Z" fill="#F59E0B"/>
</g>
</svg>
